Coordinates
version=1
nRows=32
nColumns=22
inDegrees=yes

Units are S.I. units (second, meters, Newtons, ...)
If the header above contains a line with 'inDegrees', this indicates whether rotational values are in degrees (yes) or radians (no).

endheader
time	pelvis_tilt	pelvis_list	pelvis_rotation	pelvis_tx	pelvis_ty	pelvis_tz	hip_flexion_r	hip_adduction_r	hip_rotation_r	knee_angle_r	ankle_angle_r	subtalar_angle_r	hip_flexion_l	hip_adduction_l	hip_rotation_l	knee_angle_l	ankle_angle_l	subtalar_angle_l	lumbar_extension	lumbar_bending	lumbar_rotation
      1.49000000	      2.11018832	     -2.45660664	      0.21612928	      0.82280334	      1.08398235	     -0.31615836	     -1.97481334	      4.41479803	     -1.26759711	     -9.62293241	      8.76114721	     -5.44088774	      1.46441410	     -3.53899490	     -3.90280234	    -18.18762956	     13.43152757	      1.99893965	     -6.27502916	      0.83442709	     -4.29082305
      1.50000000	      2.02867446	     -2.41360948	      0.28421174	      0.82108895	      1.08403649	     -0.31530339	     -1.68275124	      4.42970095	     -1.42250690	     -9.80427122	      8.67717522	     -5.53741458	      1.90326819	     -3.55783283	     -3.82255668	    -18.61864691	     13.32190148	      2.15751984	     -6.31526587	      0.81321939	     -4.30814310
      1.51000000	      1.94705053	     -2.35572960	      0.37358440	      0.81926531	      1.08410953	     -0.31450767	     -1.37770541	      4.42537415	     -1.59269153	     -9.99875080	      8.59573268	     -5.62287970	      2.35955304	     -3.55953020	     -3.73572306	    -19.06246203	     13.20959179	      2.36299267	     -6.36515608	      0.78021993	     -4.33727788
      1.52000000	      1.86351024	     -2.28194454	      0.47827969	      0.81733562	      1.08418559	     -0.31376498	     -1.05896714	      4.39948147	     -1.76396630	    -10.20528591	      8.52073595	     -5.70059089	      2.83295368	     -3.54395177	     -3.64973667	    -19.51795357	     13.11544084	      2.63376815	     -6.42214415	      0.73474531	     -4.37960576
      1.53000000	      1.78488652	     -2.19519002	      0.60032770	      0.81530720	      1.08426121	     -0.31307860	     -0.73636005	      4.35496587	     -1.93373171	    -10.42007249	      8.45402845	     -5.77053843	      3.30827805	     -3.51445287	     -3.56054496	    -19.97253108	     13.05297603	      2.98151303	     -6.49272722	      0.67900174	     -4.43238043
      1.54000000	      1.71388423	     -2.09821054	      0.73702113	      0.81319400	      1.08432979	     -0.31245417	     -0.41381529	      4.29389050	     -2.10659274	    -10.64309553	      8.40146687	     -5.83514116	      3.77369235	     -3.47250960	     -3.46010040	    -20.41363720	     13.03354496	      3.41818510	     -6.57844292	      0.61774047	     -4.49199081
      1.55000000	      1.65729463	     -1.99443976	      0.88124018	      0.81100082	      1.08438522	     -0.31189723	     -0.10085288	      4.21937732	     -2.26909117	    -10.87065974	      8.36202862	     -5.89634448	      4.21543152	     -3.42212541	     -3.35316832	    -20.83571695	     13.07386033	      3.94493056	     -6.68428768	      0.55633842	     -4.55385581
      1.56000000	      1.60486108	     -1.89184416	      1.02151920	      0.80875582	      1.08440426	     -0.31134423	      0.20380743	      4.14474126	     -2.40991220	    -11.08639050	      8.32025912	     -5.96059175	      4.64257436	     -3.37933642	     -3.25889877	    -21.24537894	     13.19128427	      4.60810249	     -6.79359352	      0.49225015	     -4.60637434
      1.57000000	      1.57834024	     -1.78536873	      1.17712598	      0.80644684	      1.08441028	     -0.31090242	      0.49088605	      4.05786123	     -2.56114145	    -11.32033547	      8.32377218	     -6.02537785	      5.01837999	     -3.32285644	     -3.10443484	    -21.61784887	     13.37595174	      5.31353524	     -6.93152090	      0.43704042	     -4.67985896
      1.58000000	      1.55989117	     -1.69301628	      1.31610850	      0.80409908	      1.08437334	     -0.31047178	      0.76060385	      3.98414650	     -2.68366393	    -11.53369663	      8.31654608	     -6.09702735	      5.37292360	     -3.29024803	     -2.97806302	    -21.99169644	     13.65353876	      6.13318929	     -7.07138437	      0.39494080	     -4.73199124
      1.59000000	      1.55914195	     -1.61443794	      1.44822029	      0.80173085	      1.08431577	     -0.31008705	      1.00202166	      3.92213628	     -2.78934668	    -11.72911563	      8.31256136	     -6.17359701	      5.68981708	     -3.27509983	     -2.84603575	    -22.36467829	     13.99804072	      6.99400437	     -7.21895080	      0.37150742	     -4.78451979
      1.60000000	      1.57228559	     -1.55717325	      1.56745254	      0.79933878	      1.08423427	     -0.30972617	      1.21654986	      3.88155339	     -2.87565397	    -11.89938579	      8.30039333	     -6.25423858	      5.98109116	     -3.28964864	     -2.72811256	    -22.76349133	     14.40126784	      7.86739310	     -7.36820458	      0.36964337	     -4.82900257
      1.61000000	      1.59833490	     -1.52224225	      1.66843553	      0.79694634	      1.08413993	     -0.30938714	      1.40183684	      3.86334289	     -2.93803234	    -12.04050028	      8.27153811	     -6.33525572	      6.24851501	     -3.33724484	     -2.63853019	    -23.20650599	     14.82832481	      8.69618965	     -7.51329579	      0.39330963	     -4.87028560
      1.62000000	      1.63030152	     -1.50227544	      1.75106028	      0.79457198	      1.08403488	     -0.30906036	      1.55813557	      3.85948137	     -2.99004362	    -12.13968932	      8.22715336	     -6.41515197	      6.50570456	     -3.41577483	     -2.60801657	    -23.71873903	     15.25936497	      9.46234144	     -7.64025162	      0.42612231	     -4.89737110
      1.63000000	      1.67605409	     -1.52408087	      1.82019902	      0.79220939	      1.08392824	     -0.30874697	      1.68442495	      3.89943786	     -3.03009862	    -12.20988637	      8.17435527	     -6.48713631	      6.75375537	     -3.55312505	     -2.61970376	    -24.33249898	     15.66686135	     10.06248771	     -7.75856365	      0.50348036	     -4.92659627
      1.64000000	      1.72970841	     -1.56986099	      1.86468124	      0.78985876	      1.08383015	     -0.30841964	      1.78757444	      3.96499523	     -3.05089259	    -12.25154949	      8.10410930	     -6.54919106	      6.99713057	     -3.73637246	     -2.70476587	    -25.05942799	     16.02977508	     10.49637279	     -7.86032166	      0.59842793	     -4.94491492
      1.65000000	      1.80422803	     -1.64732242	      1.88451690	      0.78752018	      1.08376286	     -0.30810006	      1.85531111	      4.06367255	     -3.04371406	    -12.26854799	      8.00868913	     -6.59266619	      7.22065848	     -3.97138698	     -2.85260020	    -25.91023969	     16.34587648	     10.69838396	     -7.96081505	      0.72571600	     -4.95306401
      1.66000000	      1.87633468	     -1.73866155	      1.87814763	      0.78519585	      1.08370259	     -0.30775359	      1.91174770	      4.17686880	     -3.03273232	    -12.25730188	      7.90148427	     -6.63056338	      7.44886668	     -4.24570646	     -3.07995765	    -26.89262987	     16.59988228	     10.77076378	     -8.03280819	      0.85435603	     -4.94929361
      1.67000000	      1.97778601	     -1.84652321	      1.84759050	      0.78287290	      1.08369530	     -0.30739098	      1.93177099	      4.30711542	     -3.03512025	    -12.23427731	      7.80523652	     -6.65574278	      7.63716835	     -4.55758318	     -3.35571594	    -27.99080650	     16.78332076	     10.69620620	     -8.11567890	      0.98770144	     -4.90999692
      1.68000000	      2.03405080	     -1.97415358	      1.78596224	      0.78047259	      1.08364570	     -0.30700680	      1.99683179	      4.46151212	     -2.94091047	    -12.19519365	      7.62365974	     -6.68659261	      7.86871502	     -4.89945805	     -3.64013681	    -29.20649734	     16.92610679	     10.48619133	     -8.13307370	      1.13561849	     -4.89183542
      1.69000000	      2.07160396	     -2.08869219	      1.70244960	      0.77805981	      1.08358794	     -0.30663658	      2.08232968	      4.59770041	     -2.87267394	    -12.15390157	      7.47048567	     -6.72632750	      8.09635466	     -5.23138869	     -3.92851467	    -30.50450902	     16.98307677	     10.09346339	     -8.10737821	      1.25693717	     -4.84550275
      1.70000000	      2.13634516	     -2.20804349	      1.59109296	      0.77557594	      1.08358947	     -0.30625249	      2.15300125	      4.74045191	     -2.78955168	    -12.13116819	      7.31430735	     -6.76085697	      8.26232706	     -5.56501842	     -4.18091512	    -31.85874985	     16.98866345	      9.62978501	     -8.10624601	      1.37155593	     -4.79396768
      1.71000000	      2.23297101	     -2.32959741	      1.45949079	      0.77302221	      1.08366110	     -0.30589652	      2.19451254	      4.88590971	     -2.66752926	    -12.10979303	      7.12661460	     -6.78201889	      8.35488606	     -5.88532212	     -4.36311143	    -33.24567739	     16.98822860	      9.26843339	     -8.13499131	      1.48550825	     -4.73967965
      1.72000000	      2.30635904	     -2.43514111	      1.31057707	      0.77039396	      1.08371292	     -0.30558161	      2.27314897	      5.01042896	     -2.54722377	    -12.10397833	      6.95118020	     -6.81060044	      8.43503699	     -6.16485754	     -4.47858089	    -34.65124702	     16.93236707	      8.87639919	     -8.12842956	      1.57355204	     -4.68236432
      1.73000000	      2.37030539	     -2.51827240	      1.15382996	      0.76768064	      1.08376064	     -0.30534308	      2.37597577	      5.10562617	     -2.42674316	    -12.11753601	      6.78247995	     -6.84048335	      8.48440732	     -6.38629617	     -4.50700913	    -36.05077882	     16.84196564	      8.53077351	     -8.10609005	      1.63514708	     -4.64094968
      1.74000000	      2.43256563	     -2.58509197	      0.99442133	      0.76487172	      1.08380686	     -0.30518893	      2.49628173	      5.17757510	     -2.30897512	    -12.15172775	      6.62370576	     -6.86569492	      8.49649133	     -6.55379476	     -4.44972828	    -37.42878958	     16.71478681	      8.29818252	     -8.07960487	      1.67843068	     -4.61722696
      1.75000000	      2.49113887	     -2.64184322	      0.83580855	      0.76195301	      1.08384337	     -0.30511931	      2.63562523	      5.23395214	     -2.19058532	    -12.20298233	      6.46609727	     -6.88214861	      8.47559093	     -6.67176060	     -4.30887975	    -38.77184036	     16.55325025	      8.21523925	     -8.05025352	      1.71040646	     -4.61257497
      1.76000000	      2.53917987	     -2.68838071	      0.68503022	      0.75894450	      1.08385692	     -0.30514645	      2.79707979	      5.27312113	     -2.07863711	    -12.26649232	      6.30631334	     -6.88867885	      8.42999660	     -6.74090705	     -4.09416551	    -40.06512743	     16.36171269	      8.31144619	     -8.00679287	      1.73268365	     -4.63097747
      1.77000000	      2.56716374	     -2.72487750	      0.54878870	      0.75583749	      1.08382193	     -0.30528448	      2.99421916	      5.29451135	     -1.98260831	    -12.34759442	      6.17303846	     -6.88660266	      8.37464006	     -6.76157193	     -3.80761767	    -41.30117490	     16.13345232	      8.67327373	     -7.93988405	      1.74686752	     -4.66623066
      1.78000000	      2.60316227	     -2.75285724	      0.42994674	      0.75264444	      1.08379582	     -0.30552696	      3.18517379	      5.30133594	     -1.89993235	    -12.42278702	      5.99815539	     -6.87216845	      8.27368038	     -6.73970530	     -3.46995288	    -42.45524034	     15.85019772	      9.22692434	     -7.88271609	      1.75289095	     -4.74406673
      1.79000000	      2.63535386	     -2.76899307	      0.32429315	      0.74937718	      1.08374163	     -0.30587085	      3.38401610	      5.28912347	     -1.82903894	    -12.49924892	      5.85884871	     -6.85318246	      8.13936494	     -6.67323613	     -3.08829347	    -43.52006328	     15.48927755	      9.98549337	     -7.81836486	      1.74719257	     -4.82433889
      1.80000000	      2.66664721	     -2.79066817	      0.23326611	      0.74602953	      1.08365871	     -0.30632384	      3.58368101	      5.27752966	     -1.76501533	    -12.56768942	      5.73615095	     -6.83060984	      7.97258549	     -6.58430341	     -2.67723462	    -44.49205210	     15.03829455	     10.91909088	     -7.75037005	      1.75139921	     -4.91479750
